<?xml version="1.0" standalone="no"?>
<!DOCTYPE svg PUBLIC "-//W3C//DTD SVG 20010904//EN"
 "http://www.w3.org/TR/2001/REC-SVG-20010904/DTD/svg10.dtd">
<svg version="1.0" xmlns="http://www.w3.org/2000/svg"
 width="1181.000000pt" height="1181.000000pt" viewBox="0 0 1181.000000 1181.000000"
 preserveAspectRatio="xMidYMid meet">

<g transform="translate(0.000000,1181.000000) scale(0.100000,-0.100000)"
fill="#000000" stroke="none">
<path d="M7295 9386 c-66 -16 -160 -65 -216 -111 -100 -84 -201 -253 -239
-399 -38 -150 -82 -428 -78 -496 7 -113 82 -190 187 -190 50 0 85 17 128 62
48 50 65 100 69 207 4 121 8 148 50 309 40 154 59 197 109 240 41 37 72 46
125 39 53 -7 94 -38 120 -92 12 -25 26 -47 31 -51 5 -3 51 8 102 25 50 16 119
38 152 48 54 16 60 20 57 43 -5 53 -65 153 -131 220 -129 131 -304 186 -466
146z"/>
<path d="M5986 8984 c-72 -17 -163 -65 -221 -116 -83 -73 -172 -210 -209 -323
-33 -103 -78 -350 -79 -440 -2 -81 1 -94 25 -136 31 -53 76 -79 135 -79 83 0
145 71 168 191 70 368 82 411 133 487 43 63 77 85 141 90 48 3 62 -1 98 -24
25 -16 53 -47 68 -76 15 -27 33 -48 42 -48 36 0 285 85 291 99 3 8 -3 28 -13
45 -10 17 -34 60 -54 95 -46 83 -111 148 -187 188 -114 61 -220 76 -338 47z"/>
<path d="M7835 8836 l-40 -13 47 -13 c26 -6 49 -19 52 -27 4 -8 12 -13 20 -10
8 3 22 -3 31 -13 13 -14 13 -19 3 -23 -10 -4 -10 -6 0 -6 17 -1 -8 -41 -25
-41 -18 0 -16 -10 5 -26 16 -13 16 -14 0 -8 -13 4 -18 1 -18 -10 0 -9 -7 -19
-15 -22 -14 -6 -13 -8 2 -20 16 -12 16 -15 3 -24 -8 -5 -23 -10 -33 -10 -11 0
-24 -14 -33 -35 -8 -20 -19 -33 -24 -30 -6 3 -10 2 -10 -4 0 -5 -3 -17 -7 -27
-4 -12 -3 -15 5 -10 7 4 12 3 12 -2 0 -6 -7 -12 -15 -16 -8 -3 -15 -17 -15
-31 0 -22 -3 -25 -24 -19 -21 5 -24 3 -19 -15 6 -25 -18 -29 -37 -6 -7 8 -18
15 -24 15 -6 0 -4 -6 6 -13 16 -13 14 -72 -3 -62 -4 3 -6 12 -2 20 3 9 -1 15
-8 15 -19 0 -33 -12 -37 -29 -3 -12 -1 -12 14 0 16 12 17 12 11 -4 -4 -10 -7
-22 -7 -26 0 -4 -7 -8 -15 -8 -9 0 -15 10 -15 23 0 13 -4 26 -10 29 -5 3 -10
1 -10 -4 0 -6 -9 -11 -20 -11 -22 0 -27 -15 -8 -26 7 -5 8 -3 3 5 -5 9 -1 9
14 -1 32 -20 25 -26 -18 -18 -31 5 -38 4 -34 -7 3 -7 -2 -13 -11 -13 -9 0 -16
8 -17 18 0 13 -2 12 -9 -5 -6 -15 -15 -20 -29 -16 -13 3 -23 -2 -30 -16 -7
-12 -17 -21 -24 -20 -9 0 -9 2 1 6 6 2 12 9 12 14 0 4 -7 6 -15 3 -10 -4 -13
-14 -9 -30 10 -39 -1 -55 -30 -44 -27 10 -43 -9 -24 -28 14 -14 -17 -46 -38
-38 -10 4 -16 -3 -21 -24 -4 -23 -11 -30 -29 -30 -13 0 -24 -5 -24 -11 0 -6
-7 -9 -15 -5 -9 3 -15 0 -15 -8 0 -8 6 -17 13 -19 6 -3 2 -6 -10 -6 -13 -1
-23 -6 -23 -12 0 -6 -6 -9 -13 -6 -19 7 -80 -21 -72 -33 4 -6 3 -10 -2 -8 -17
4 -80 -15 -126 -39 -38 -20 -45 -28 -36 -39 6 -8 15 -11 20 -8 5 3 9 0 9 -5 0
-6 -14 -11 -31 -11 -17 0 -28 -4 -24 -10 3 -5 1 -10 -4 -10 -6 0 -11 7 -11 16
0 13 -3 14 -15 4 -8 -7 -13 -16 -10 -20 3 -4 -11 -11 -31 -14 -19 -4 -38 -14
-41 -22 -3 -9 -16 -13 -31 -12 -16 2 -27 -2 -28 -9 -3 -24 -4 -25 -17 -15 -10
9 -18 6 -30 -9 -22 -25 -14 -39 24 -39 17 0 28 4 25 9 -4 5 2 7 12 4 26 -6
132 26 132 40 0 8 3 7 9 -2 7 -11 28 -8 122 14 148 35 209 50 289 68 36 8 126
29 200 45 74 17 191 43 260 57 69 14 159 35 202 45 102 27 108 26 108 -9 0
-44 -73 -466 -261 -1501 -11 -63 -30 -169 -40 -235 -54 -330 -83 -445 -142
-565 -59 -120 -142 -202 -268 -264 -155 -77 -208 -79 -699 -31 -140 13 -480
43 -755 65 -275 22 -549 45 -610 51 -119 11 -219 38 -259 70 -14 11 -31 17
-37 13 -7 -4 -9 -3 -5 4 8 14 -31 10 -61 -6 -17 -10 -22 -9 -27 5 -5 13 -17
15 -71 10 -58 -6 -65 -4 -70 13 -4 11 -10 20 -15 20 -5 0 -7 8 -4 18 5 13 4
14 -4 3 -6 -8 -7 -21 -4 -30 5 -14 3 -14 -11 -3 -14 12 -16 11 -13 -5 27 -135
83 -222 186 -289 128 -83 217 -108 515 -149 105 -14 309 -43 455 -65 146 -22
398 -58 560 -80 162 -22 392 -54 510 -71 369 -52 504 -49 677 17 226 84 416
295 483 536 11 40 59 300 106 578 46 278 114 672 151 875 36 204 71 404 78
445 8 41 30 167 50 280 77 433 85 486 85 581 0 175 -56 305 -182 424 -84 79
-161 122 -266 149 -72 19 -240 20 -297 2z m158 -126 c-3 -11 -9 -17 -14 -15
-10 7 -1 35 11 35 5 0 6 -9 3 -20z"/>
<path d="M7875 8590 c4 -6 11 -8 16 -5 14 9 11 15 -7 15 -8 0 -12 -5 -9 -10z"/>
<path d="M7805 8539 c-4 -6 -5 -12 -2 -15 2 -3 7 2 10 11 7 17 1 20 -8 4z"/>
<path d="M5184 8197 c-84 -40 -158 -78 -166 -84 -7 -6 -26 -15 -41 -18 -15 -4
-32 -15 -37 -26 -6 -10 -26 -23 -45 -30 -25 -10 -32 -16 -24 -25 8 -9 5 -11
-8 -8 -17 4 -43 -27 -65 -80 -7 -15 -11 -16 -23 -6 -11 9 -15 9 -15 1 0 -7 -4
-10 -9 -7 -15 10 -18 -18 -4 -44 11 -21 17 -21 15 0 0 3 14 5 32 6 18 0 73 17
122 36 49 20 115 46 147 58 41 16 66 34 89 64 17 22 71 80 120 127 137 133
125 138 -88 36z"/>
<path d="M7356 8205 c-3 -9 1 -18 10 -22 19 -7 28 2 21 22 -8 19 -23 19 -31 0z"/>
<path d="M4706 7852 c-3 -5 1 -9 9 -9 8 0 12 4 9 9 -3 4 -7 8 -9 8 -2 0 -6 -4
-9 -8z"/>
<path d="M6846 7835 c-3 -8 -1 -15 4 -15 6 0 10 7 10 15 0 8 -2 15 -4 15 -2 0
-6 -7 -10 -15z"/>
<path d="M4825 7663 c-93 -41 -192 -83 -220 -92 -35 -13 -50 -23 -50 -36 0
-11 -21 -29 -60 -51 -120 -65 -181 -98 -250 -132 -38 -20 -74 -41 -78 -49 -4
-7 -15 -13 -23 -13 -8 0 -26 -11 -40 -25 -14 -14 -30 -23 -35 -20 -5 4 -9 0
-9 -8 0 -11 10 -12 48 -6 166 28 545 132 748 205 82 30 86 35 129 187 26 91
30 118 18 116 -5 0 -84 -35 -178 -76z"/>
<path d="M7205 7349 c-22 -4 -137 -26 -255 -49 -191 -36 -332 -66 -605 -130
-44 -11 -159 -37 -255 -60 -272 -62 -659 -162 -835 -215 -258 -77 -439 -136
-449 -146 -13 -12 0 -12 41 0 20 6 35 6 38 0 4 -5 0 -9 -7 -9 -8 0 -36 -14
-64 -32 -57 -36 -477 -248 -493 -248 -6 0 -16 -10 -22 -22 -7 -13 -19 -29 -26
-37 -20 -19 2 -33 42 -25 17 3 41 7 55 9 23 3 120 28 285 73 143 39 384 112
495 150 63 22 180 61 260 87 80 26 165 58 190 70 25 13 106 42 180 65 74 24
187 63 250 87 63 25 153 58 200 73 166 54 436 153 490 180 30 14 89 37 130 49
41 13 143 44 225 70 83 27 166 53 185 59 28 8 30 10 10 10 -14 0 -43 -4 -65
-9z"/>
<path d="M4715 7196 c-99 -34 -229 -77 -290 -95 -60 -18 -157 -48 -215 -66
-58 -19 -157 -48 -220 -65 -115 -32 -144 -45 -134 -61 3 -5 -6 -4 -19 2 -16 7
-31 8 -42 2 -15 -9 -12 -11 16 -18 24 -5 29 -9 16 -12 -15 -4 -16 -7 -5 -21 7
-9 9 -13 3 -11 -5 3 -18 -3 -28 -14 -19 -19 -18 -19 5 -12 18 5 16 2 -9 -15
-61 -40 -46 -42 122 -15 271 44 358 60 540 102 216 49 365 101 388 136 8 12
18 38 21 57 4 19 14 63 23 98 8 35 13 65 12 66 -2 2 -85 -24 -184 -58z"/>
<path d="M7115 6998 c-115 -22 -197 -63 -214 -106 -6 -15 -17 -58 -25 -97 -8
-38 -20 -94 -26 -123 -7 -29 -9 -56 -6 -59 6 -6 228 12 294 24 18 3 39 15 47
27 13 20 52 217 62 314 6 50 12 49 -132 20z"/>
<path d="M3756 6855 c-3 -8 -1 -15 4 -15 13 0 22 18 11 24 -5 3 -11 -1 -15 -9z"/>
<path d="M6659 6831 c-33 -25 -111 -63 -189 -91 -100 -36 -106 -42 -125 -121
-10 -38 -15 -72 -13 -74 2 -3 60 2 129 10 68 8 131 15 139 15 31 1 41 20 60
111 25 131 32 169 27 169 -2 0 -15 -8 -28 -19z"/>
<path d="M6942 6424 c-79 -7 -146 -15 -149 -17 -2 -3 -11 -36 -19 -74 -25
-112 -64 -306 -64 -315 0 -4 76 -8 170 -8 151 0 170 2 179 18 14 26 83 391 76
402 -7 12 -4 12 -193 -6z"/>
<path d="M6516 6369 c-21 -5 -82 -13 -135 -17 l-96 -7 -34 -158 c-18 -87 -30
-161 -26 -165 11 -12 252 -15 273 -3 22 11 31 44 62 211 12 63 23 123 26 133
6 19 -8 21 -70 6z"/>
<path d="M4540 6234 c-69 -25 -147 -51 -175 -59 -104 -29 -170 -48 -173 -51
-2 -1 1 -11 7 -23 6 -11 7 -22 2 -25 -15 -10 -23 -58 -11 -66 6 -4 13 -16 14
-26 4 -23 6 -23 201 22 209 48 241 59 254 92 9 22 41 161 41 178 0 11 -45 -1
-160 -42z"/>
<path d="M6058 6225 c-3 -14 -1 -28 3 -31 5 -3 9 9 9 25 0 38 -6 40 -12 6z"/>
<path d="M5867 6168 c-4 -12 -9 -19 -13 -15 -14 14 -44 -15 -54 -53 -6 -23
-15 -38 -19 -35 -5 2 -11 -4 -14 -16 -7 -27 35 -48 58 -29 10 8 15 9 15 1 0
-6 14 -9 33 -8 18 2 31 8 30 15 -2 7 6 12 16 12 31 0 33 17 5 39 -22 17 -24
23 -14 42 9 17 9 27 -1 45 -16 30 -35 31 -42 2z"/>
<path d="M5938 6185 c-3 -3 -3 -16 -1 -30 6 -30 31 -22 31 11 0 22 -17 32 -30
19z"/>
<path d="M6006 6036 c3 -9 11 -16 16 -16 13 0 5 23 -10 28 -7 2 -10 -2 -6 -12z"/>
<path d="M5950 6032 c0 -5 11 -12 25 -14 14 -3 25 -1 25 3 0 5 -4 9 -9 9 -5 0
-16 3 -25 6 -9 3 -16 2 -16 -4z"/>
<path d="M2945 4386 c-197 -45 -384 -182 -488 -357 -55 -94 -70 -154 -65 -269
3 -89 7 -104 42 -176 46 -92 150 -203 233 -247 125 -67 340 -87 496 -48 130
34 317 142 317 185 0 10 -198 146 -213 146 -4 0 -35 -19 -70 -43 -80 -55 -137
-71 -231 -65 -127 8 -222 70 -269 176 -44 101 1 251 104 346 145 135 330 159
511 69 58 -30 74 -34 94 -25 41 19 164 113 176 135 9 18 7 25 -21 48 -42 35
-168 96 -239 115 -79 22 -299 28 -377 10z"/>
<path d="M4746 4368 c-8 -18 -23 -82 -34 -143 -12 -60 -33 -171 -48 -245 -28
-141 -43 -220 -68 -355 -8 -44 -24 -129 -35 -189 -12 -61 -21 -115 -21 -122 0
-14 92 -23 178 -16 48 4 65 9 73 23 5 11 23 85 39 167 17 81 35 165 40 187 39
165 55 237 95 443 26 128 45 242 43 255 -3 21 -7 22 -126 25 l-123 3 -13 -33z"/>
<path d="M6580 4380 c-14 -27 -40 -173 -40 -228 0 -38 5 -49 43 -86 23 -23 58
-68 77 -101 51 -86 53 -180 10 -452 -18 -112 -31 -206 -28 -208 2 -3 18 -8 35
-11 24 -5 33 -2 41 12 5 11 22 102 37 204 16 102 32 191 38 198 7 9 49 12 166
10 l156 -3 -3 -51 c-4 -59 19 -168 47 -222 77 -150 298 -192 492 -93 44 23 82
41 86 41 3 0 3 -15 0 -33 -9 -54 -1 -58 115 -59 58 0 110 2 116 6 5 3 15 36
21 73 35 208 92 508 117 611 9 35 13 70 10 78 -4 11 -27 12 -118 7 -117 -6
-138 -13 -138 -44 0 -23 -2 -23 -48 -1 -68 34 -127 45 -229 40 -88 -3 -106 -7
-173 -40 -78 -37 -180 -117 -211 -165 -11 -15 -19 -23 -19 -18 0 6 9 24 20 40
11 17 20 33 20 38 0 4 -94 7 -208 7 -115 0 -211 2 -214 5 -8 8 32 218 43 230
6 6 109 11 257 13 136 1 249 6 253 10 3 4 11 45 18 92 19 129 48 120 -405 120
-365 0 -374 0 -384 -20z m1124 -533 c82 -47 102 -156 44 -243 -46 -68 -112
-103 -195 -104 -82 0 -110 14 -139 72 -28 55 -30 98 -9 159 20 57 49 86 110
115 65 31 136 32 189 1z"/>
<path d="M9165 4300 c-12 -4 -26 -14 -32 -21 -15 -19 -53 -137 -53 -165 0 -24
-17 -34 -60 -34 -35 0 -60 -9 -60 -22 0 -5 -13 -43 -30 -85 -16 -41 -30 -76
-30 -78 0 -2 28 -5 63 -7 l62 -3 -3 -43 c-1 -24 -16 -111 -32 -193 -41 -205
-30 -255 71 -320 65 -41 158 -50 254 -24 70 18 145 66 145 90 0 8 -33 36 -72
61 -99 63 -128 91 -128 126 0 30 47 274 55 288 2 4 39 10 82 13 62 5 81 10 94
26 19 23 45 144 34 160 -3 6 -40 11 -86 11 -44 0 -79 4 -79 10 0 5 10 53 21
106 18 80 19 98 8 105 -18 11 -197 11 -224 -1z"/>
<path d="M3950 4069 c-120 -18 -238 -85 -312 -176 -86 -106 -101 -141 -106
-255 -4 -91 -2 -101 25 -160 40 -85 73 -122 141 -155 51 -25 67 -28 162 -28
93 0 111 3 163 27 32 15 71 36 87 48 15 11 31 20 34 20 4 0 4 -22 0 -49 l-6
-49 115 -1 c64 -1 118 3 121 8 10 15 45 194 81 411 18 113 41 239 49 280 9 41
12 78 8 82 -5 5 -66 5 -138 1 l-129 -8 -3 -28 c-2 -16 -6 -27 -10 -25 -93 50
-194 70 -282 57z m154 -219 c57 -27 87 -75 88 -137 0 -120 -101 -212 -233
-213 -135 0 -198 118 -135 255 25 56 41 69 116 97 61 22 116 22 164 -2z"/>
<path d="M5982 4071 c-57 -4 -86 -11 -92 -21 -8 -14 -26 -109 -51 -275 -10
-69 -24 -149 -54 -322 -25 -141 -25 -140 -9 -154 17 -14 220 -7 235 8 5 5 25
92 45 194 52 278 68 320 133 353 78 41 146 25 180 -43 20 -38 20 -40 1 -132
-10 -52 -26 -139 -34 -194 -9 -55 -18 -112 -21 -127 -9 -55 -3 -58 121 -58
l113 0 7 38 c3 20 14 73 24 117 26 111 60 322 60 367 0 124 -101 237 -225 253
-68 9 -158 -9 -229 -45 -32 -16 -62 -30 -67 -30 -4 0 -5 16 -2 35 4 27 2 35
-10 35 -8 0 -21 1 -29 3 -7 2 -50 1 -96 -2z"/>
<path d="M8399 4057 c-127 -44 -196 -112 -206 -201 -15 -132 48 -198 239 -247
103 -27 138 -44 138 -69 0 -70 -141 -82 -263 -22 -35 18 -69 32 -75 32 -11 0
-132 -155 -132 -170 0 -4 19 -17 43 -28 173 -81 400 -92 536 -25 127 61 198
190 160 290 -24 65 -91 107 -229 143 -133 36 -179 65 -164 104 16 41 137 48
240 14 l67 -22 21 30 c11 16 38 48 60 71 21 24 36 49 33 56 -11 29 -146 61
-277 64 -110 3 -133 1 -191 -20z"/>
<path d="M5300 4056 c-113 -32 -200 -98 -270 -207 -88 -136 -81 -320 16 -428
68 -76 167 -122 278 -128 103 -7 189 8 272 48 87 41 94 51 65 103 -13 22 -30
53 -38 69 -17 33 -22 33 -76 5 -44 -22 -163 -36 -212 -24 -30 8 -105 72 -105
91 0 9 62 14 258 20 141 4 265 11 274 16 10 5 23 36 32 78 37 164 -42 298
-208 354 -59 20 -218 22 -286 3z m182 -178 c38 -11 88 -60 88 -86 0 -9 -44
-12 -155 -12 -85 0 -155 4 -155 8 0 17 69 74 106 87 49 18 67 18 116 3z"/>
</g>
</svg>
