<?xml version="1.0" standalone="no"?>
<!DOCTYPE svg PUBLIC "-//W3C//DTD SVG 20010904//EN"
 "http://www.w3.org/TR/2001/REC-SVG-20010904/DTD/svg10.dtd">
<svg version="1.0" xmlns="http://www.w3.org/2000/svg"
 width="1181.000000pt" height="1181.000000pt" viewBox="0 0 1181.000000 1181.000000"
 preserveAspectRatio="xMidYMid meet">

<g transform="translate(0.000000,1181.000000) scale(0.100000,-0.100000)"
fill="#000000" stroke="none">
<path d="M4655 11005 c-483 -63 -945 -293 -1295 -645 -337 -338 -535 -716
-633 -1209 -21 -105 -21 -125 -24 -1890 l-4 -1783 -58 -67 c-256 -291 -424
-650 -504 -1076 -19 -106 -20 -152 -24 -1253 -3 -823 -1 -1159 7 -1198 15 -74
61 -132 130 -167 l55 -27 2662 0 c2409 0 2666 1 2702 16 36 14 48 14 132 0
168 -29 337 -14 509 46 159 55 149 53 210 25 30 -14 105 -38 165 -53 97 -25
128 -28 255 -28 177 1 258 20 406 95 377 190 648 670 735 1299 21 145 18 509
-5 645 -55 332 -144 535 -310 701 -99 98 -185 149 -301 179 -77 20 -235 19
-333 -1 -98 -20 -259 -88 -376 -158 -59 -35 -109 -58 -143 -64 l-53 -9 0 376
c0 355 -1 378 -20 408 -27 45 -84 62 -132 39 -19 -9 -40 -28 -47 -42 -8 -17
-11 -146 -11 -419 0 -313 -3 -395 -13 -395 -7 0 -72 35 -144 79 -148 88 -285
151 -387 178 l-68 18 -34 95 c-49 137 -162 361 -242 481 -39 57 -111 151 -161
209 l-90 105 -1 1675 c0 1043 -4 1716 -10 1785 -33 358 -164 732 -360 1030
-365 553 -951 920 -1600 1001 -140 17 -447 17 -585 -1z m530 -205 c218 -25
458 -96 660 -194 652 -319 1079 -938 1145 -1661 10 -106 15 -3235 6 -3235 -3
0 -42 27 -88 60 -308 221 -718 373 -1067 396 -143 9 -131 -3 -131 123 l0 110
78 41 c198 106 439 320 575 510 90 127 198 347 241 490 70 235 71 253 71 955
0 609 -1 634 -22 745 -25 131 -54 226 -76 247 -41 41 -319 65 -503 44 -102
-12 -277 -46 -412 -81 -99 -25 -226 -47 -382 -65 -545 -64 -991 13 -1246 216
-98 77 -150 144 -210 265 -59 119 -75 134 -141 134 -46 0 -90 -45 -162 -164
-107 -177 -178 -354 -223 -559 -23 -100 -23 -113 -23 -787 0 -674 0 -687 23
-787 83 -377 274 -707 546 -945 100 -87 231 -178 331 -230 l65 -33 0 -107 0
-106 -47 -6 c-27 -3 -77 -8 -113 -11 -256 -24 -558 -114 -790 -237 -92 -49
-281 -171 -347 -224 l-33 -27 0 1607 c0 1066 4 1639 11 1704 39 360 177 712
393 999 331 442 826 733 1372 807 121 17 377 20 499 6z m-1436 -1313 c169
-214 455 -357 831 -414 86 -13 176 -17 355 -17 325 0 484 21 915 119 85 19
202 40 260 46 97 11 295 8 307 -5 3 -3 11 -33 19 -68 30 -141 36 -302 32 -843
-5 -605 -8 -637 -84 -858 -74 -215 -185 -389 -359 -562 -134 -135 -250 -218
-410 -294 -572 -274 -1251 -158 -1695 289 -172 173 -291 363 -364 581 -71 216
-71 210 -71 934 0 644 0 651 23 754 13 57 37 142 54 190 39 110 107 246 118
235 4 -5 36 -44 69 -87z m816 -3206 c145 -36 228 -45 405 -45 199 0 344 20
503 70 16 5 17 -16 17 -358 0 -273 -4 -375 -14 -413 -61 -229 -267 -388 -499
-388 -151 0 -278 54 -380 162 -34 37 -74 92 -89 123 -53 108 -58 152 -58 531
0 327 1 348 18 343 9 -3 53 -14 97 -25z m-323 -538 c5 -204 7 -223 32 -298 37
-109 83 -188 156 -268 109 -118 242 -197 387 -228 81 -17 244 -15 328 5 149
36 304 135 397 253 130 167 168 304 168 611 l0 142 43 0 c49 0 209 -19 216
-26 2 -2 -220 -841 -495 -1864 -321 -1196 -502 -1854 -506 -1843 -11 25 -998
3706 -995 3710 7 6 138 21 198 22 l67 1 4 -217z m-42 -1478 c237 -885 438
-1632 446 -1660 8 -27 10 -45 5 -40 -4 6 -275 470 -600 1033 l-592 1022 112
193 c61 105 113 206 116 223 3 17 -1 43 -8 56 -8 14 -131 126 -274 249 -143
123 -262 229 -264 234 -7 15 139 108 284 181 129 65 324 137 337 125 3 -3 200
-730 438 -1616z m2120 1578 c52 -20 144 -60 203 -90 108 -53 269 -152 281
-171 3 -5 -116 -114 -264 -241 -148 -127 -272 -242 -276 -254 -15 -47 -2 -79
106 -266 61 -106 110 -199 108 -207 -4 -16 -1182 -2053 -1186 -2049 -2 2 801
3002 875 3268 18 66 3 65 153 10z m-3110 -613 c118 -101 220 -188 227 -194 9
-8 -14 -56 -98 -201 -93 -161 -109 -195 -105 -222 3 -24 1449 -2543 1544
-2691 l14 -22 -706 0 -706 0 0 620 c0 665 0 663 -49 690 -25 13 -87 13 -112 0
-49 -27 -49 -25 -49 -690 l0 -620 -415 0 c-399 0 -415 1 -425 19 -14 27 -14
2085 0 2236 43 463 232 877 545 1196 77 79 90 88 104 76 9 -8 113 -96 231
-197z m3898 80 c153 -172 285 -381 367 -584 37 -94 36 -106 -12 -106 -31 0
-129 -39 -195 -77 -314 -183 -495 -689 -458 -1279 36 -568 235 -1059 539
-1331 l36 -32 -302 -1 -303 0 0 604 c0 332 -3 617 -6 635 -10 51 -49 81 -104
81 -54 0 -84 -24 -100 -81 -6 -20 -10 -274 -10 -636 l0 -603 -700 0 c-385 0
-700 2 -700 4 0 2 347 604 772 1337 572 988 773 1344 776 1372 4 34 -9 60
-103 224 -97 168 -105 187 -91 201 8 9 116 102 238 208 202 174 225 191 243
179 11 -6 62 -59 113 -115z m697 -922 c89 -32 151 -63 296 -150 64 -38 147
-80 185 -93 l68 -24 17 -58 c24 -82 45 -129 89 -193 85 -125 251 -242 391
-275 83 -19 239 -19 314 0 85 23 173 64 196 93 41 52 13 230 -58 365 -47 90
-164 210 -252 259 l-63 36 55 20 c112 42 177 54 277 50 117 -5 184 -29 261
-94 73 -63 124 -132 175 -239 197 -414 169 -1104 -66 -1602 -156 -330 -372
-523 -640 -571 -78 -13 -107 -14 -196 -4 -96 11 -143 23 -299 82 -76 28 -157
24 -241 -14 -147 -65 -335 -90 -474 -62 -417 85 -724 547 -811 1221 -27 215
-9 543 41 739 70 275 219 474 396 530 75 24 248 16 339 -16z m1075 -229 c143
-59 256 -186 277 -312 5 -33 4 -34 -40 -46 -103 -25 -229 -8 -326 44 -101 55
-202 189 -218 289 -5 34 -4 35 33 41 22 4 44 8 49 11 28 11 174 -7 225 -27z"/>
</g>
</svg>
