<?xml version="1.0" standalone="no"?>
<!DOCTYPE svg PUBLIC "-//W3C//DTD SVG 20010904//EN"
 "http://www.w3.org/TR/2001/REC-SVG-20010904/DTD/svg10.dtd">
<svg version="1.0" xmlns="http://www.w3.org/2000/svg"
 width="1181.000000pt" height="1181.000000pt" viewBox="0 0 1181.000000 1181.000000"
 preserveAspectRatio="xMidYMid meet">

<g transform="translate(0.000000,1181.000000) scale(0.100000,-0.100000)"
fill="#000000" stroke="none">
<path d="M4210 10124 c-219 -39 -397 -139 -562 -313 -132 -139 -219 -315 -252
-510 -28 -164 -15 -313 41 -484 47 -142 117 -258 223 -370 272 -288 664 -386
1042 -261 154 52 262 118 379 234 207 206 304 437 302 715 -2 214 -62 409
-176 574 -81 119 -242 258 -374 325 -183 92 -422 127 -623 90z"/>
<path d="M9681 9982 c-19 -10 -438 -456 -1000 -1066 l-966 -1050 -70 -1 c-41
-1 -93 -9 -124 -21 -38 -13 -200 -129 -591 -421 -296 -222 -542 -403 -546
-403 -5 0 -108 125 -229 278 -326 411 -449 525 -655 609 -131 52 -212 63 -506
63 l-272 0 -150 -210 -151 -210 151 -1062 152 -1063 -169 -198 c-159 -185
-170 -196 -186 -180 -9 10 -85 99 -170 198 l-153 179 152 1063 151 1064 -150
209 -151 210 -272 0 c-291 0 -364 -9 -501 -61 -169 -63 -344 -205 -488 -396
-29 -38 -216 -273 -417 -523 -200 -250 -378 -480 -394 -510 -24 -44 -30 -69
-34 -135 -2 -49 2 -96 10 -121 7 -23 195 -395 417 -828 440 -857 431 -842 549
-902 50 -26 67 -29 148 -29 84 0 95 2 167 38 59 29 87 51 117 89 l40 50 0
-1514 c0 -1012 4 -1535 11 -1578 41 -257 303 -430 552 -365 169 44 299 174
336 336 7 29 11 518 11 1387 l0 1342 85 0 85 0 0 -1343 c0 -1178 2 -1350 15
-1402 41 -155 167 -277 332 -320 73 -19 133 -19 208 0 165 43 275 147 339 319
8 23 12 787 16 2790 l5 2759 342 -419 c360 -441 385 -466 491 -500 62 -20 169
-15 242 11 58 20 1394 1013 1467 1090 70 74 96 143 97 256 1 79 -2 91 -36 160
-36 72 -36 75 -19 94 10 11 437 475 948 1032 666 723 934 1021 943 1047 21 65
-12 135 -76 162 -44 18 -62 18 -103 -4z m-6293 -4456 l-3 -503 -317 628 -317
627 317 388 317 387 3 -512 c1 -282 1 -739 0 -1015z"/>
</g>
</svg>
