<?xml version="1.0" standalone="no"?>
<!DOCTYPE svg PUBLIC "-//W3C//DTD SVG 20010904//EN"
 "http://www.w3.org/TR/2001/REC-SVG-20010904/DTD/svg10.dtd">
<svg version="1.0" xmlns="http://www.w3.org/2000/svg"
 width="1181.000000pt" height="1181.000000pt" viewBox="0 0 1181.000000 1181.000000"
 preserveAspectRatio="xMidYMid meet">

<g transform="translate(0.000000,1181.000000) scale(0.100000,-0.100000)"
fill="#000000" stroke="none">
<path d="M4310 9793 c-277 -16 -532 -83 -675 -178 -30 -20 -81 -66 -114 -101
l-58 -64 -69 0 c-224 -1 -403 -103 -487 -280 -51 -109 -69 -200 -68 -360 0
-194 40 -398 123 -639 l40 -115 -29 -21 c-116 -84 -169 -222 -160 -420 8 -166
56 -301 140 -392 43 -46 102 -83 135 -83 16 0 29 -25 67 -122 116 -297 283
-571 458 -755 l40 -42 -32 -98 c-72 -219 -179 -383 -274 -417 -23 -8 -89 -22
-147 -31 -129 -19 -208 -35 -415 -85 -785 -189 -1203 -521 -1394 -1106 -86
-263 -139 -632 -171 -1189 -6 -104 -15 -259 -20 -343 -11 -174 -4 -209 49
-236 27 -15 373 -16 3628 -14 3477 3 3599 4 3632 21 45 25 80 63 102 112 25
54 27 306 3 363 -35 84 -109 131 -220 139 l-74 6 0 95 c0 119 -14 166 -65 217
-45 45 -97 65 -174 65 l-51 0 0 308 c1 333 -4 291 75 717 33 175 38 221 39
365 1 175 -6 223 -51 338 l-25 62 44 48 c122 131 92 332 -62 416 l-50 27 0
547 0 546 27 28 c17 18 29 44 32 70 l6 43 135 -2 c234 -5 460 -48 680 -130 52
-20 210 -93 350 -163 278 -139 400 -189 530 -216 77 -16 159 -55 160 -76 0 -7
-705 -1378 -811 -1576 -46 -87 -50 -144 -20 -264 152 -594 1060 -845 1643
-455 216 144 346 344 364 560 l7 74 -427 825 c-234 454 -426 830 -426 837 0 6
4 11 9 11 23 0 119 103 146 157 27 52 30 68 30 153 0 88 -3 101 -33 162 -71
145 -232 222 -392 189 -48 -10 -115 -42 -171 -83 -21 -14 -125 38 -349 174
-275 168 -431 245 -650 319 -215 74 -450 124 -635 135 -119 7 -128 11 -84 34
90 47 147 147 136 241 -11 95 -64 161 -162 204 -28 13 -56 34 -64 47 -11 23
-10 31 17 79 135 240 -29 543 -305 566 -160 13 -311 -76 -381 -225 -24 -50
-27 -70 -27 -158 0 -97 1 -104 37 -172 l37 -71 -20 -25 c-11 -14 -41 -35 -67
-46 -97 -43 -152 -123 -152 -220 0 -96 53 -180 140 -221 32 -15 50 -30 50 -41
0 -10 -7 -18 -15 -18 -9 0 -81 -7 -161 -15 -316 -33 -607 -112 -873 -236 -57
-27 -105 -49 -106 -49 -2 0 -5 57 -7 128 -3 78 -11 146 -21 177 -23 69 -74
143 -127 184 -25 19 -44 39 -44 45 1 6 11 53 23 103 85 373 29 715 -160 989
-64 92 -220 243 -319 309 -295 194 -671 304 -1085 317 -60 2 -130 2 -155 1z
m436 -242 c553 -96 926 -350 1055 -717 66 -189 66 -455 0 -686 l-18 -63 -52 1
c-99 3 -193 66 -331 222 -52 57 -59 62 -97 62 -23 0 -70 -7 -105 -15 -164 -38
-282 -49 -518 -49 -320 0 -534 32 -867 128 -67 20 -129 36 -138 36 -35 0 -76
-32 -99 -78 -27 -52 -77 -103 -146 -149 -49 -33 -204 -113 -218 -113 -15 0
-100 269 -128 407 -38 177 -40 373 -6 481 19 60 33 84 75 127 72 73 128 90
287 82 149 -7 167 1 209 88 32 67 71 104 161 150 88 44 263 89 430 109 83 10
399 -4 506 -23z m3038 -745 c18 -8 46 -31 62 -52 25 -32 29 -47 29 -99 0 -52
-4 -67 -29 -99 -96 -127 -296 -60 -296 99 0 121 120 199 234 151z m-110 -532
c29 -4 76 -1 105 5 l52 11 49 -54 c31 -33 69 -62 100 -75 52 -22 71 -44 53
-62 -16 -16 -624 -13 -639 3 -19 18 -7 30 59 62 36 17 72 46 99 77 25 30 47
48 56 44 7 -3 37 -8 66 -11z m-3783 -83 c277 -71 432 -92 706 -98 253 -6 391
3 560 36 l93 18 83 -81 c93 -90 180 -146 277 -178 52 -16 88 -20 182 -20 l117
1 29 -35 c68 -82 67 -276 -1 -411 -34 -65 -43 -72 -104 -70 -74 3 -92 -18
-143 -166 -114 -329 -305 -639 -513 -832 -538 -500 -1218 -341 -1648 385 -76
129 -169 333 -214 469 -15 47 -40 97 -55 115 -26 28 -33 31 -84 29 -54 -2 -57
-1 -81 35 -40 58 -69 165 -69 257 0 139 39 218 112 230 57 10 135 42 272 112
137 70 244 144 292 204 17 22 32 39 33 39 1 0 71 -18 156 -39z m3959 -601 l0
-280 -135 0 -135 0 0 280 0 280 135 0 135 0 0 -280z m437 50 c182 -24 284 -46
438 -96 229 -76 359 -138 660 -318 116 -69 240 -141 277 -159 67 -32 68 -33
66 -69 -1 -23 -7 -38 -15 -38 -27 0 -172 64 -393 175 -127 63 -277 134 -333
156 -238 95 -489 147 -757 158 l-165 6 -3 103 -3 102 35 0 c19 0 106 -9 193
-20z m-927 -125 l0 -105 -127 0 c-223 -1 -452 -37 -664 -106 -159 -51 -292
-110 -517 -226 -106 -55 -196 -98 -198 -95 -9 9 43 141 57 147 51 23 153 78
269 145 319 184 623 286 983 329 61 8 131 14 155 15 l42 1 0 -105z m14 -359
c8 -19 24 -39 35 -46 21 -11 21 -13 21 -560 l0 -550 -33 -14 c-167 -69 -210
-299 -82 -431 l44 -45 -25 -60 c-35 -87 -54 -188 -54 -292 l0 -91 -47 44
c-173 161 -402 289 -705 394 -152 53 -471 132 -628 156 -237 35 -266 46 -330
117 -63 70 -127 195 -174 335 l-36 109 55 59 c78 85 170 208 237 318 l58 95
102 36 c57 20 208 89 336 153 279 141 409 195 562 236 210 55 296 67 502 69
l148 2 14 -34z m2806 -84 c37 -36 40 -43 40 -91 0 -93 -58 -151 -146 -146 -55
4 -88 27 -114 80 -29 59 -19 108 30 158 35 34 42 37 93 37 51 0 60 -3 97 -38z
m-2400 -522 l0 -541 -67 3 -68 3 -3 538 -2 537 70 0 70 0 0 -540z m2195 -1467
c-3 -10 -75 -13 -311 -13 -287 0 -306 1 -300 18 6 14 547 1068 595 1157 15 28
16 -11 19 -560 1 -324 0 -596 -3 -602z m553 545 c155 -301 282 -549 282 -552
0 -3 -139 -6 -310 -6 l-310 0 0 603 0 602 28 -50 c16 -27 155 -296 310 -597z
m-6637 406 c122 -82 307 -152 458 -174 124 -19 313 -8 433 24 107 28 233 83
321 140 32 20 62 37 68 39 5 1 27 -45 49 -102 22 -57 51 -124 65 -149 14 -25
24 -46 23 -47 -12 -10 -793 -375 -802 -375 -11 0 -785 365 -795 375 -2 3 16
49 41 102 25 54 53 122 63 151 9 28 18 52 20 52 2 0 27 -16 56 -36z m4057
-250 c28 -20 30 -69 3 -84 -12 -6 -109 -10 -245 -10 -221 0 -225 0 -240 22
-20 29 -20 30 5 62 l20 26 218 0 c180 0 220 -3 239 -16z m-4005 -371 l369
-177 -49 -46 c-112 -104 -306 -275 -313 -275 -5 0 -145 126 -313 280 l-304
280 74 26 c41 15 91 40 111 57 20 17 41 31 47 31 5 1 176 -79 378 -176z m1561
138 c30 -21 83 -46 117 -55 l62 -18 -29 -27 c-34 -32 -539 -496 -570 -523 -21
-19 -22 -18 -203 143 -99 90 -180 164 -178 165 5 5 733 353 739 353 4 1 32
-16 62 -38z m2358 -126 c54 -89 63 -134 62 -320 0 -143 -5 -192 -28 -310 -83
-418 -78 -371 -83 -737 l-5 -338 -28 0 c-27 0 -27 1 -34 78 -22 254 -75 521
-143 722 -72 216 -121 510 -110 660 7 88 34 181 71 245 l27 45 122 0 122 0 27
-45z m-4272 -1072 c305 -592 596 -1157 646 -1255 l92 -178 -187 0 -186 0 -312
270 -313 271 19 47 c10 26 65 160 121 297 118 288 123 316 72 367 -38 38 -25
37 -344 25 l-207 -9 -6 24 c-12 48 -224 1152 -222 1154 2 2 254 61 267 63 3 1
255 -484 560 -1076z m2540 1041 c63 -15 117 -28 119 -30 3 -3 -220 -1166 -225
-1173 -2 -2 -114 1 -250 7 -267 12 -283 10 -318 -40 -30 -43 -19 -86 104 -393
66 -165 119 -302 118 -306 -2 -3 -142 -126 -312 -273 l-309 -266 -183 0 c-101
0 -184 2 -184 5 0 5 1148 2235 1236 2402 41 77 58 100 72 97 9 -2 69 -15 132
-30z m-3454 -725 c67 -344 127 -635 133 -647 26 -49 54 -53 281 -46 129 4 210
3 210 -2 0 -5 -45 -121 -99 -257 -55 -136 -102 -260 -105 -275 -4 -17 0 -39
11 -58 10 -18 124 -123 253 -234 129 -111 242 -208 250 -216 12 -12 -53 -14
-453 -14 l-467 0 0 468 c0 424 -2 470 -17 492 -27 40 -45 49 -91 50 -35 0 -49
-6 -73 -29 l-29 -29 0 -476 0 -476 -530 0 -530 0 0 36 c0 130 51 786 75 974
84 635 265 960 668 1199 102 60 361 174 381 168 6 -2 65 -285 132 -628z m3919
584 c257 -101 465 -245 601 -416 80 -101 124 -178 180 -316 105 -257 153 -567
199 -1271 8 -129 17 -256 20 -282 l6 -48 -531 0 -530 0 0 455 c0 489 -1 504
-51 539 -38 26 -93 21 -131 -13 l-33 -29 -3 -476 -3 -476 -467 0 c-369 1 -464
3 -451 13 8 7 123 105 256 219 229 199 263 234 263 278 0 11 -46 133 -101 272
-56 139 -104 259 -107 266 -4 12 35 13 221 10 l226 -3 27 27 c26 25 35 63 151
660 68 348 123 634 123 636 0 5 40 -8 135 -45z m-1984 -226 l64 -58 -57 -107
-57 -107 -53 -3 -53 -2 -58 107 -58 108 82 77 c95 88 74 89 190 -15z m856
-119 c-41 -79 -176 -341 -301 -584 -124 -242 -232 -448 -239 -458 -10 -14 -26
44 -100 371 -48 213 -88 391 -87 394 0 3 23 48 51 98 l52 93 46 -44 c103 -97
120 -110 153 -117 23 -6 45 -4 64 4 16 7 119 97 229 199 110 102 202 185 203
186 2 0 -30 -64 -71 -142z m-1768 -63 c94 -88 187 -168 204 -177 49 -26 89
-10 181 72 43 38 82 70 87 70 12 0 99 -165 99 -189 0 -23 -168 -762 -174 -769
-3 -2 -21 29 -42 69 -20 41 -141 277 -269 524 -327 633 -311 602 -283 579 13
-11 102 -91 197 -179z m7165 -7 c-47 -153 -206 -307 -393 -383 -211 -86 -494
-96 -711 -25 -223 74 -406 237 -455 408 l-6 22 786 0 786 0 -7 -22z m-6215
-797 l114 -499 -123 -239 c-67 -131 -125 -241 -129 -245 -4 -4 -64 103 -134
238 l-126 245 110 487 c60 268 112 493 114 500 2 6 17 12 33 12 l28 0 113
-499z m3451 -621 l0 -80 -160 0 -160 0 0 43 c0 23 -3 59 -6 80 l-7 37 167 0
166 0 0 -80z m320 -400 l0 -100 -305 0 -305 0 0 54 c0 29 -3 74 -6 100 l-7 46
312 0 311 0 0 -100z"/>
</g>
</svg>
