<?xml version="1.0" standalone="no"?>
<!DOCTYPE svg PUBLIC "-//W3C//DTD SVG 20010904//EN"
 "http://www.w3.org/TR/2001/REC-SVG-20010904/DTD/svg10.dtd">
<svg version="1.0" xmlns="http://www.w3.org/2000/svg"
 width="1181.000000pt" height="1181.000000pt" viewBox="0 0 1181.000000 1181.000000"
 preserveAspectRatio="xMidYMid meet">

<g transform="translate(0.000000,1181.000000) scale(0.100000,-0.100000)"
fill="#000000" stroke="none">
<path d="M2596 10559 c-85 -316 -95 -672 -36 -1285 31 -324 45 -390 89 -439
17 -19 16 -27 -35 -240 -98 -404 -107 -462 -108 -695 0 -230 13 -359 74 -730
90 -545 122 -884 215 -2275 65 -981 165 -1314 657 -2199 177 -318 288 -504
449 -751 64 -99 136 -214 158 -255 22 -41 41 -72 41 -68 1 37 -279 575 -570
1098 -296 532 -422 813 -496 1103 -75 297 -109 556 -139 1047 -8 140 -29 451
-45 690 -76 1101 -79 1136 -175 1730 -69 425 -78 633 -40 875 8 50 46 214 84
365 65 260 71 278 105 315 60 65 119 246 152 465 8 58 18 201 21 319 l6 213
41 19 c165 75 472 -98 651 -366 111 -166 202 -381 260 -612 56 -223 70 -326
69 -538 -1 -173 -3 -199 -27 -289 -33 -122 -101 -264 -158 -331 -42 -49 -28
-41 38 19 l32 29 9 -24 c66 -173 97 -338 137 -717 31 -301 49 -408 174 -1037
55 -275 105 -535 112 -577 31 -192 17 6 -22 312 -18 142 -60 401 -124 766 -13
77 -28 202 -34 276 -9 136 -9 137 20 227 41 129 70 284 134 716 120 813 163
1009 275 1270 146 340 345 548 595 620 148 43 451 -20 613 -129 52 -34 99
-104 125 -186 44 -136 43 -403 -4 -709 -20 -133 -20 -133 -69 -195 -134 -170
-215 -352 -331 -741 -33 -109 -62 -201 -64 -204 -3 -2 -5 7 -5 21 0 14 -9 56
-20 92 -42 135 -203 261 -349 273 -180 15 -374 -114 -441 -294 -42 -113 -103
-427 -116 -599 -4 -46 -10 -84 -14 -84 -15 0 -51 137 -61 234 -10 94 1 363 26
611 2 28 -11 -24 -29 -115 -82 -394 -75 -604 26 -804 l30 -59 4 -231 c3 -127
8 -234 12 -237 12 -12 183 -67 257 -83 97 -22 261 -46 314 -46 40 0 43 -2 37
-23 -5 -22 -73 -347 -166 -802 -21 -104 -44 -230 -51 -280 -14 -111 -7 -322
14 -389 14 -43 14 -58 2 -123 -29 -151 -76 -506 -68 -513 14 -14 184 -103 280
-148 118 -54 275 -106 383 -127 47 -9 95 -18 106 -20 20 -4 26 7 63 113 60
171 57 166 65 92 4 -36 16 -89 26 -118 17 -48 18 -56 4 -95 -8 -23 -35 -109
-59 -191 -41 -138 -43 -150 -27 -162 38 -28 263 -134 347 -164 120 -42 272
-78 359 -85 l71 -6 23 53 c13 29 58 134 99 233 72 171 79 183 138 241 127 124
253 304 343 492 25 52 104 240 176 420 l131 326 35 9 c181 46 295 95 430 187
182 125 326 260 650 611 120 130 249 260 287 289 95 75 97 78 18 35 -185 -101
-272 -172 -526 -433 -293 -301 -421 -411 -584 -505 -104 -60 -247 -107 -344
-114 l-76 -5 75 78 c42 44 130 135 196 204 278 290 375 450 377 626 1 69 -3
89 -27 137 -69 142 -226 186 -389 109 -75 -35 -112 -61 -227 -162 -41 -36 -67
-54 -59 -40 9 14 58 97 109 185 214 368 317 498 544 689 202 171 466 341 629
406 231 92 390 71 543 -73 69 -64 124 -159 170 -292 25 -73 28 -96 32 -260 3
-149 -1 -234 -27 -495 -52 -538 -57 -604 -71 -1055 -15 -459 -39 -591 -206
-1124 -288 -922 -392 -1374 -439 -1911 -19 -227 -30 -598 -18 -629 8 -20 11
-6 16 65 7 93 89 672 133 929 75 444 204 945 354 1375 220 629 249 776 270
1385 12 360 24 529 56 810 44 394 43 740 -5 905 -65 227 -148 349 -306 449
-168 107 -380 91 -650 -48 -60 -31 -113 -57 -117 -59 -4 -2 -8 6 -8 17 0 42
-70 213 -114 279 -74 112 -183 199 -341 273 -118 55 -199 73 -335 73 -121 -1
-209 -18 -283 -55 l-39 -20 9 58 c4 32 8 137 8 233 -1 189 -11 251 -63 360
-51 111 -198 225 -359 281 -69 24 -278 59 -348 59 -103 0 -250 -53 -344 -124
-19 -14 -36 -24 -38 -22 -2 2 4 55 13 117 25 159 24 473 0 583 -55 249 -155
343 -443 418 -226 59 -378 40 -573 -69 -238 -134 -440 -453 -554 -875 -41
-153 -92 -415 -157 -803 -32 -198 -73 -445 -91 -550 -35 -207 -35 -207 -58
-27 -7 52 -23 135 -36 185 -23 86 -94 249 -126 291 -13 16 -10 27 29 105 91
185 119 372 94 626 -47 468 -233 939 -470 1188 -175 185 -424 286 -572 233
l-36 -13 -7 141 c-4 78 -15 222 -24 321 l-17 179 -45 14 c-25 8 -102 16 -171
19 l-125 6 -18 -64z m216 -899 c1 -127 -4 -225 -13 -280 -20 -122 -22 -69 -13
280 9 334 23 334 26 0z m3729 -1076 c214 -36 378 -131 447 -262 44 -82 63
-173 63 -305 0 -171 -29 -325 -106 -562 -146 -446 -338 -1142 -425 -1535 -25
-118 -164 -589 -225 -771 -53 -156 -150 -361 -226 -480 -52 -81 -162 -221
-179 -227 -4 -2 12 58 36 133 87 273 112 431 94 598 -23 225 -111 377 -255
444 -52 23 -73 27 -156 28 -90 0 -99 -2 -170 -37 -79 -39 -165 -115 -218 -192
-77 -112 -167 -345 -223 -578 -13 -54 -27 -98 -32 -98 -5 0 -6 62 -3 148 6
132 15 191 97 592 150 740 228 1082 341 1514 60 229 193 677 255 860 52 152
132 323 199 428 71 110 195 228 287 272 120 58 200 64 399 30z m1057 -929
c143 -34 305 -125 402 -225 59 -61 115 -150 167 -263 l31 -70 -101 -70 c-230
-158 -448 -360 -587 -545 -43 -57 -118 -172 -167 -255 -228 -384 -270 -458
-313 -543 -25 -50 -84 -142 -131 -205 -95 -126 -198 -281 -249 -375 l-33 -61
43 -39 c118 -107 244 -178 381 -213 l74 -19 47 45 47 46 50 -9 50 -9 -43 -95
c-24 -52 -78 -187 -121 -300 -84 -223 -167 -405 -235 -515 -49 -80 -161 -228
-167 -221 -3 2 16 58 40 123 193 506 196 767 9 935 -156 141 -340 152 -505 31
-28 -21 -48 -31 -45 -23 4 8 25 56 46 105 62 140 124 335 226 713 111 407 131
487 186 728 47 212 161 587 259 852 38 103 81 228 96 277 14 50 30 97 34 105
12 23 109 73 181 92 82 21 243 23 328 3z m-2439 -115 c56 -28 99 -67 121 -109
17 -34 44 -150 37 -158 -2 -2 -16 28 -31 66 -32 82 -82 151 -138 192 -47 34
-43 37 11 9z m2578 -1683 c11 -22 17 -55 17 -103 -1 -127 -63 -222 -249 -379
-59 -49 -114 -94 -123 -99 -17 -10 54 78 192 239 132 153 182 276 143 354 -20
41 -2 30 20 -12z m-1962 -497 c122 -84 156 -231 101 -441 -24 -92 -82 -252
-72 -199 40 209 57 381 45 448 -18 95 -69 175 -138 213 -34 19 -34 20 -7 14
16 -3 48 -19 71 -35z m940 -833 c51 -105 53 -247 6 -381 -24 -68 -124 -286
-129 -281 -2 2 17 80 42 173 91 336 94 472 13 561 l-22 25 32 -22 c17 -13 43
-46 58 -75z m-673 -104 c-19 -49 -77 -209 -127 -358 l-92 -270 -12 55 c-7 30
-15 98 -18 151 -5 81 -2 110 16 178 l22 82 122 123 c67 68 123 124 124 125 1
0 -15 -38 -35 -86z"/>
</g>
</svg>
