<?xml version="1.0" standalone="no"?>
<!DOCTYPE svg PUBLIC "-//W3C//DTD SVG 20010904//EN"
 "http://www.w3.org/TR/2001/REC-SVG-20010904/DTD/svg10.dtd">
<svg version="1.0" xmlns="http://www.w3.org/2000/svg"
 width="1181.000000pt" height="1181.000000pt" viewBox="0 0 1181.000000 1181.000000"
 preserveAspectRatio="xMidYMid meet">

<g transform="translate(0.000000,1181.000000) scale(0.100000,-0.100000)"
fill="#000000" stroke="none">
<path d="M8195 10024 c-38 -8 -110 -35 -160 -59 -356 -172 -490 -614 -293
-965 49 -87 189 -218 278 -262 138 -67 161 -72 320 -72 134 0 150 2 220 28
107 40 173 80 247 150 145 135 223 312 223 506 0 107 -23 200 -76 309 -38 78
-61 109 -128 177 -68 68 -99 90 -177 127 -152 74 -299 93 -454 61z"/>
<path d="M7657 8260 c-144 -25 -299 -95 -405 -183 -34 -28 -367 -383 -738
-787 -531 -577 -682 -747 -702 -790 -86 -183 49 -393 253 -394 124 0 107 -14
750 647 319 328 583 597 588 597 4 0 7 -181 7 -401 l0 -402 38 6 c20 3 358 45
751 93 683 84 717 87 794 76 47 -7 107 -24 145 -42 35 -16 66 -30 68 -30 2 0
5 191 6 425 l3 425 247 -247 248 -248 -159 -277 -160 -278 10 -412 c6 -227 11
-414 13 -415 4 -4 796 1238 819 1282 24 48 40 143 32 200 -14 114 -36 143
-421 550 -197 209 -377 395 -399 414 -109 93 -255 162 -395 187 -58 10 -218
13 -710 12 -349 0 -657 -4 -683 -8z"/>
<path d="M4747 6566 c-57 -16 -119 -57 -158 -106 -30 -38 -990 -2034 -1016
-2113 -23 -71 -14 -206 19 -277 50 -108 150 -195 260 -224 47 -13 -15 -15
-592 -15 -577 1 -638 2 -580 15 79 16 208 79 270 131 95 78 165 177 208 296
23 65 26 86 26 207 0 120 -3 143 -26 208 -37 104 -83 176 -159 252 -75 74
-149 121 -247 158 -100 37 -281 43 -384 12 -122 -37 -204 -86 -293 -175 -126
-125 -186 -270 -187 -445 0 -114 16 -188 62 -285 89 -187 249 -316 446 -359
65 -13 39 -14 -403 -15 l-473 -1 0 -675 0 -675 210 0 210 0 0 420 0 420 3845
0 3845 0 0 -420 0 -420 275 0 275 0 0 675 0 675 -2002 1 c-1976 0 -2002 0
-1932 19 146 38 270 123 351 242 38 55 123 242 344 753 318 735 324 747 412
779 24 9 377 54 827 106 432 50 808 97 837 106 50 14 127 64 166 108 10 12 32
50 50 86 27 55 31 77 32 140 0 102 -25 168 -93 242 -68 73 -140 109 -230 115
-80 5 -1874 -217 -1962 -243 -129 -38 -255 -123 -336 -227 -51 -64 -88 -136
-384 -754 l-183 -383 -779 0 c-428 0 -778 2 -778 5 0 3 133 285 295 626 162
341 300 642 306 667 29 129 -49 277 -175 333 -58 25 -140 32 -199 15z"/>
<path d="M9156 5679 c-21 -11 -59 -27 -85 -35 -25 -8 -405 -57 -844 -109 -438
-52 -802 -97 -807 -100 -6 -4 -10 -252 -10 -706 l0 -699 365 0 365 0 0 518 c0
517 0 518 23 562 30 59 64 82 131 88 69 6 123 -22 157 -82 l24 -41 3 -522 3
-523 364 0 365 0 0 835 c0 459 -3 835 -7 835 -5 -1 -25 -10 -47 -21z"/>
<path d="M7412 2933 c3 -168 5 -193 25 -236 33 -71 113 -150 186 -183 83 -38
202 -40 290 -5 75 30 158 110 195 188 26 55 27 66 30 241 l4 182 -367 0 -367
0 4 -187z"/>
<path d="M8480 2945 c0 -152 3 -181 21 -230 29 -79 111 -164 191 -201 84 -38
203 -40 291 -5 75 30 158 110 195 188 26 55 27 66 30 241 l4 182 -366 0 -366
0 0 -175z"/>
</g>
</svg>
