<?xml version="1.0" standalone="no"?>
<!DOCTYPE svg PUBLIC "-//W3C//DTD SVG 20010904//EN"
 "http://www.w3.org/TR/2001/REC-SVG-20010904/DTD/svg10.dtd">
<svg version="1.0" xmlns="http://www.w3.org/2000/svg"
 width="1181.000000pt" height="1181.000000pt" viewBox="0 0 1181.000000 1181.000000"
 preserveAspectRatio="xMidYMid meet">

<g transform="translate(0.000000,1181.000000) scale(0.100000,-0.100000)"
fill="#000000" stroke="none">
<path d="M6076 10400 c-207 -25 -530 -116 -821 -232 -637 -255 -1005 -591
-1005 -918 0 -114 45 -300 105 -437 l24 -52 -83 -118 c-319 -458 -682 -936
-966 -1273 -139 -165 -390 -417 -485 -488 -152 -112 -415 -226 -675 -292 -223
-56 -616 -110 -804 -110 -103 0 -166 -55 -166 -145 0 -59 27 -102 81 -130 47
-25 288 -14 564 26 429 61 764 168 1035 329 151 90 246 168 410 336 293 302
698 810 1116 1397 82 116 121 164 127 155 221 -365 417 -619 663 -858 162
-158 261 -234 387 -300 122 -64 181 -80 292 -80 222 0 407 104 490 274 55 114
69 208 62 426 -9 264 -19 350 -102 900 -42 276 -28 431 55 595 53 106 59 135
36 189 -45 107 -195 110 -262 5 -45 -73 -92 -180 -116 -264 -19 -69 -22 -105
-21 -260 0 -116 6 -217 16 -285 83 -534 99 -679 101 -920 1 -209 -8 -251 -67
-307 -64 -62 -206 -82 -306 -44 -171 65 -531 420 -781 771 -270 378 -440 746
-440 954 0 63 38 146 100 218 76 88 283 229 478 327 207 103 605 246 828 296
102 23 134 26 229 22 131 -6 196 -25 286 -87 l64 -44 145 -8 c193 -10 302 -24
435 -58 347 -87 574 -263 799 -620 125 -200 173 -272 233 -348 169 -216 375
-312 943 -437 403 -88 584 -148 658 -218 31 -30 32 -33 32 -113 0 -202 -85
-466 -216 -672 -146 -229 -376 -441 -592 -547 -171 -84 -270 -95 -609 -70
-570 41 -781 5 -1038 -177 -170 -120 -396 -368 -559 -612 -165 -247 -201 -338
-161 -413 25 -45 72 -73 126 -73 66 0 100 26 149 116 56 104 194 311 265 399
209 261 400 412 585 462 83 23 403 25 667 4 147 -12 207 -13 315 -3 167 14
242 36 393 111 467 234 836 715 940 1224 22 108 34 281 25 349 -23 167 -145
285 -391 377 -118 45 -269 85 -604 161 -321 73 -495 135 -606 216 -61 45 -114
113 -268 353 -159 246 -230 339 -347 451 -213 204 -467 328 -799 389 -117 22
-288 41 -363 41 -36 0 -70 12 -147 50 -101 51 -169 73 -260 84 -97 13 -131 13
-199 6z"/>
<path d="M4588 6904 c-354 -52 -725 -308 -969 -668 -49 -72 -75 -99 -132 -139
-437 -301 -666 -693 -701 -1202 -12 -161 -27 -254 -46 -278 -18 -23 -26 -24
-192 -30 -365 -14 -703 -76 -1038 -193 -283 -98 -317 -123 -308 -231 4 -49 10
-61 41 -89 54 -50 92 -52 195 -14 397 147 679 206 1107 234 237 15 289 26 360
77 22 16 54 50 72 76 58 87 75 164 103 458 41 432 215 711 611 980 60 40 94
71 114 104 137 223 324 409 522 520 66 37 232 101 262 101 28 0 7 -292 -35
-493 -29 -136 2 -184 147 -230 242 -76 402 -237 620 -622 68 -120 86 -142 227
-286 169 -173 164 -163 137 -277 -53 -223 -199 -321 -585 -392 -252 -46 -364
-107 -400 -216 -20 -58 -6 -276 34 -559 73 -521 90 -720 90 -1085 0 -236 -3
-315 -17 -395 -27 -156 -63 -296 -102 -396 -38 -99 -43 -144 -20 -189 46 -88
175 -105 238 -31 30 36 118 299 147 440 74 364 66 845 -26 1531 -48 360 -64
494 -64 536 0 49 -18 41 200 85 247 50 349 85 476 165 87 53 198 169 241 251
50 93 84 223 90 344 3 59 3 120 -1 135 -5 18 -70 93 -180 204 -170 173 -174
177 -267 338 -196 341 -386 539 -615 643 -35 16 -64 34 -64 39 0 6 7 54 16
108 22 132 22 345 0 439 -18 76 -71 169 -109 193 -37 23 -88 27 -179 14z"/>
<path d="M7612 5429 c-69 -34 -104 -71 -138 -144 l-24 -50 0 -542 0 -543 -542
0 c-519 0 -545 -1 -587 -20 -66 -31 -114 -73 -147 -132 l-29 -53 0 -515 c0
-503 0 -516 21 -560 28 -58 80 -112 141 -141 l48 -24 547 -3 547 -2 3 -553 3
-552 30 -54 c36 -65 83 -105 153 -131 50 -19 79 -20 537 -20 458 0 487 1 537
20 70 26 117 66 153 131 l30 54 3 552 3 553 547 2 547 3 48 24 c57 27 110 80
141 136 21 39 21 50 24 541 3 492 2 502 -19 559 -26 69 -81 128 -152 161 l-52
24 -542 0 -542 0 -3 553 c-3 547 -3 552 -25 593 -36 67 -70 101 -135 133 l-61
31 -502 0 -502 0 -61 -31z m998 -851 c0 -577 1 -593 21 -634 15 -31 32 -48 63
-63 41 -20 57 -21 634 -21 l592 0 0 -435 0 -435 -595 0 c-577 0 -597 -1 -635
-20 -26 -13 -47 -34 -60 -60 -19 -38 -20 -58 -20 -635 l0 -595 -435 0 -435 0
0 598 0 597 -23 39 c-45 79 -16 76 -689 76 l-598 0 0 435 0 435 592 0 c571 0
593 1 633 20 26 13 49 34 63 59 22 39 22 41 22 635 l0 596 435 0 435 0 0 -592z"/>
</g>
</svg>
