<?xml version="1.0" standalone="no"?>
<!DOCTYPE svg PUBLIC "-//W3C//DTD SVG 20010904//EN"
 "http://www.w3.org/TR/2001/REC-SVG-20010904/DTD/svg10.dtd">
<svg version="1.0" xmlns="http://www.w3.org/2000/svg"
 width="1181.000000pt" height="1181.000000pt" viewBox="0 0 1181.000000 1181.000000"
 preserveAspectRatio="xMidYMid meet">

<g transform="translate(0.000000,1181.000000) scale(0.100000,-0.100000)"
fill="#000000" stroke="none">
<path d="M3000 9425 c-322 -83 -580 -336 -672 -660 -30 -106 -32 -353 -5 -455
64 -235 165 -387 356 -538 l24 -19 -69 -38 c-91 -50 -209 -169 -254 -256 l-34
-66 -230 -6 c-209 -5 -238 -7 -308 -30 -212 -68 -370 -221 -441 -427 l-22 -65
-3 -1482 c-3 -1641 -6 -1557 62 -1696 90 -186 258 -314 462 -354 l90 -18 -174
-353 c-190 -386 -192 -391 -136 -443 35 -32 102 -33 136 -2 13 12 111 198 218
412 l194 391 553 0 553 0 199 -398 c109 -219 207 -404 217 -412 9 -8 37 -15
61 -15 38 0 49 5 74 33 18 20 29 43 29 62 0 19 -64 157 -170 370 -93 187 -170
344 -170 349 0 5 53 11 118 14 120 5 168 17 276 68 159 75 304 260 341 437 21
97 21 738 0 837 -39 185 -177 362 -347 444 -139 67 -169 71 -628 71 -418 0
-447 3 -541 43 -98 43 -195 156 -231 270 -17 57 -18 104 -16 916 l3 856 34 70
c58 118 166 208 287 240 81 21 703 22 780 1 162 -43 292 -185 323 -352 7 -38
11 -313 11 -800 0 -791 2 -822 50 -944 93 -236 355 -370 725 -370 221 0 369
-79 424 -225 38 -101 41 -189 41 -1202 l0 -983 -175 0 -175 0 0 510 c0 373 -3
516 -12 535 -13 29 -55 55 -88 55 -29 0 -77 -27 -90 -49 -16 -30 -13 -1191 3
-1211 38 -49 43 -50 365 -50 l304 0 34 34 35 35 -3 1138 -3 1138 -27 81 c-52
153 -150 267 -283 330 -107 51 -173 64 -370 74 -147 7 -194 13 -257 33 -99 32
-156 65 -206 122 -80 91 -76 41 -82 950 -6 709 -9 818 -23 872 -51 191 -169
343 -332 425 l-59 30 29 21 c67 47 170 157 222 234 266 401 182 945 -194 1244
-112 89 -239 149 -391 184 -103 24 -297 19 -412 -10z m358 -191 c331 -68 565
-335 589 -674 22 -320 -192 -627 -507 -728 -76 -24 -99 -27 -220 -26 -124 1
-142 3 -224 32 -235 83 -406 268 -466 506 -27 106 -27 255 0 360 93 363 469
604 828 530z m-1058 -2865 c0 -713 2 -819 16 -882 44 -193 161 -347 333 -436
146 -75 134 -74 641 -81 499 -7 489 -5 592 -71 102 -66 178 -184 197 -309 14
-82 14 -605 1 -684 -13 -81 -60 -176 -117 -237 -57 -61 -97 -88 -176 -117 -58
-22 -60 -22 -970 -22 -902 0 -914 0 -975 21 -148 50 -262 185 -291 343 -15 80
-15 2840 -1 2917 33 171 167 313 335 355 30 7 124 13 233 13 l182 1 0 -811z"/>
<path d="M8500 9425 c-329 -86 -576 -327 -672 -660 -20 -69 -23 -102 -23 -235
0 -175 18 -263 79 -396 61 -131 177 -276 285 -355 l35 -26 -65 -34 c-91 -48
-215 -173 -262 -266 -76 -146 -77 -158 -77 -765 l0 -538 -169 0 -170 0 -3 310
-3 310 -33 32 -32 33 -548 3 c-301 2 -567 0 -591 -3 -29 -5 -54 -16 -73 -35
l-28 -28 0 -721 c0 -496 3 -727 11 -744 21 -47 56 -57 200 -57 l134 0 -39 -32
c-89 -73 -200 -238 -250 -371 -51 -136 -56 -195 -56 -639 l0 -410 34 -34 34
-34 311 0 311 0 0 -587 c1 -625 -1 -601 50 -636 22 -15 58 -17 328 -17 l304 0
34 34 c45 45 47 92 5 138 l-29 33 -246 3 -246 3 0 514 0 515 241 0 241 0 34
34 c37 37 44 74 22 121 -25 56 -18 55 -643 55 l-576 0 3 373 4 372 26 73 c83
225 254 389 483 463 61 19 100 23 296 28 254 7 259 8 279 80 5 20 10 163 10
324 l0 287 235 0 c253 0 269 3 298 54 9 16 13 183 17 646 l5 625 31 65 c58
122 165 213 289 245 48 12 125 15 396 15 303 0 343 -2 398 -19 159 -49 280
-185 311 -350 6 -34 10 -349 10 -845 0 -670 -2 -801 -15 -849 -39 -152 -132
-258 -276 -319 -53 -22 -65 -23 -514 -28 l-460 -6 -85 -32 c-200 -76 -341
-220 -407 -416 l-28 -81 0 -390 c0 -380 1 -392 23 -465 55 -175 178 -323 333
-399 111 -54 183 -71 301 -71 54 0 98 -2 98 -5 0 -2 -79 -164 -176 -358 -175
-351 -177 -354 -164 -391 6 -20 23 -44 38 -54 37 -24 96 -21 124 5 13 12 111
198 218 413 l195 390 552 0 553 0 200 -400 c218 -436 221 -440 296 -426 40 8
84 57 84 95 0 16 -74 180 -170 375 -93 191 -170 349 -170 351 0 2 23 6 52 10
257 36 466 220 544 481 17 55 18 150 21 1469 3 851 0 1448 -6 1506 -23 238
-151 429 -353 529 -130 64 -165 70 -425 77 -225 6 -232 7 -237 27 -9 34 -84
143 -133 191 -48 48 -137 112 -187 134 l-30 12 35 26 c68 51 195 191 237 262
56 95 97 200 118 302 24 121 15 322 -20 442 -99 334 -356 571 -704 652 -103
24 -297 19 -412 -10z m405 -200 c252 -68 454 -272 521 -525 21 -81 24 -263 6
-340 -8 -30 -36 -102 -64 -159 -43 -90 -62 -116 -132 -185 -95 -94 -178 -146
-296 -184 -76 -24 -99 -27 -220 -26 -120 0 -144 4 -215 28 -306 105 -495 370
-495 695 0 341 226 619 570 702 89 22 231 19 325 -6z m1146 -2055 c167 -31
312 -177 348 -348 18 -84 15 -2890 -3 -2957 -34 -130 -123 -238 -243 -297
l-68 -33 -945 0 -945 0 -65 31 c-82 40 -143 93 -190 166 -68 104 -72 136 -68
543 l3 360 37 77 c48 102 114 168 216 216 l77 37 455 5 455 5 80 28 c106 37
173 77 247 145 101 94 171 216 197 342 8 38 12 312 13 865 1 446 3 813 5 818
6 11 332 9 394 -3z m-2801 -1125 l0 -585 -445 0 -445 0 0 585 0 585 445 0 445
0 0 -585z"/>
<path d="M4829 9310 c-123 -16 -238 -99 -295 -215 l-29 -60 -3 -624 c-3 -697
-4 -688 66 -789 78 -116 171 -159 358 -169 l124 -6 0 -168 c0 -165 0 -168 26
-198 29 -35 81 -49 115 -30 13 7 139 99 281 206 l258 193 522 0 c288 1 554 5
591 9 133 18 243 98 301 221 l31 65 0 640 0 640 -32 67 c-59 125 -164 201
-301 219 -80 10 -1933 10 -2013 -1z m2052 -223 c27 -15 52 -38 66 -63 l23 -39
0 -599 c0 -585 0 -599 -21 -635 -11 -20 -36 -48 -56 -61 l-37 -25 -595 -3
-595 -3 -200 -150 -201 -150 -5 113 c-9 183 -8 182 -250 188 -178 5 -188 6
-223 30 -20 13 -45 41 -57 62 -20 36 -20 45 -18 647 3 601 3 610 24 638 11 15
38 38 60 50 l39 23 1001 0 1001 0 44 -23z"/>
<path d="M5099 8485 c-15 -8 -34 -31 -44 -52 -16 -33 -16 -41 -4 -77 29 -81
120 -108 178 -52 97 93 -12 245 -130 181z"/>
<path d="M5784 8481 c-57 -35 -68 -125 -21 -169 52 -49 119 -48 166 2 88 94
-34 235 -145 167z"/>
<path d="M6463 8480 c-22 -13 -36 -32 -44 -61 -11 -37 -11 -46 7 -78 26 -50
82 -77 127 -62 71 24 105 98 73 159 -31 59 -104 78 -163 42z"/>
</g>
</svg>
